<svg xmlns="http://www.w3.org/2000/svg" viewBox="0 0 17 17"><defs><style>.cls-1{fill:#fff;fill-rule:evenodd;}</style></defs><g id="Layer_2" data-name="Layer 2"><g id="Layer_1-2" data-name="Layer 1"><path class="cls-1" d="M8.5,0A8.5,8.5,0,1,0,17,8.5,8.51,8.51,0,0,0,8.5,0ZM4.35,5.62l.28,0h7.76l.27,0-.08.08L8.81,8.91a.41.41,0,0,1-.64,0L4.44,5.73l-.09-.08Zm8.74,5.06a.67.67,0,0,1-.73.73H4.65a.69.69,0,0,1-.75-.74V6.15L5,7.1,7.76,9.44a1.08,1.08,0,0,0,1.47,0c.71-.59,1.41-1.19,2.11-1.79l1.75-1.48v.15C13.1,7.77,13.1,9.22,13.09,10.68Z"/></g></g></svg>