<svg xmlns="http://www.w3.org/2000/svg" viewBox="0 0 26 26"><defs><style>.cls-1{fill:#fff;}</style></defs><g id="Layer_2" data-name="Layer 2"><g id="Layer_1-2" data-name="Layer 1"><path class="cls-1" d="M19,7.47a1,1,0,0,0-1-.6H8A1,1,0,0,0,6.87,8V18A1,1,0,0,0,8,19.13H18a1,1,0,0,0,1.1-1.1V8A1.18,1.18,0,0,0,19,7.47Zm-3.16,8.36A4,4,0,0,1,13,17h0a4,4,0,0,1-2.82-1.18A4,4,0,0,1,13,9h0a3.91,3.91,0,0,1,2.77,1.14A4.07,4.07,0,0,1,17,13,4,4,0,0,1,15.86,15.83ZM17.12,10h0a1.15,1.15,0,0,1-.82-.34,1.17,1.17,0,0,1,.83-2h0A1.17,1.17,0,0,1,18,8a1.22,1.22,0,0,1,.34.85A1.17,1.17,0,0,1,17.12,10Z"/><path class="cls-1" d="M13,10.67h0a2.32,2.32,0,0,0-1.59,4,2.29,2.29,0,0,0,1.63.66A2.34,2.34,0,0,0,15.33,13a2.37,2.37,0,0,0-.72-1.66A2.3,2.3,0,0,0,13,10.67Z"/><path class="cls-1" d="M13,0A13,13,0,1,0,26,13,13,13,0,0,0,13,0Zm7.84,18A2.75,2.75,0,0,1,18,20.84H8A2.7,2.7,0,0,1,5.32,19a3.06,3.06,0,0,1-.16-.92V8A2.74,2.74,0,0,1,8,5.16H18A2.75,2.75,0,0,1,20.84,8Z"/></g></g></svg>