<svg xmlns="http://www.w3.org/2000/svg" viewBox="0 0 17 17"><defs><style>.cls-1{fill:#fff;}.cls-2{fill:#383737;fill-rule:evenodd;}</style></defs><g id="Layer_2" data-name="Layer 2"><g id="Layer_1-2" data-name="Layer 1"><circle class="cls-1" cx="8.5" cy="8.5" r="8.5"/><path class="cls-2" d="M12.45,12.46l-1.1-1.91a.66.66,0,0,0-.89-.2l-1,.57A6.83,6.83,0,0,1,7,6.55l1-.57a.64.64,0,0,0,.28-.86L7.11,3.21A.64.64,0,0,0,6.23,3l-1,.59c-1.69,1-.06,5.08.73,6.45s3.53,4.84,5.22,3.86l1-.59A.63.63,0,0,0,12.45,12.46Z"/></g></g></svg>