<svg id="Layer_1" data-name="Layer 1" xmlns="http://www.w3.org/2000/svg" viewBox="0 0 26.11 26.11"><g id="Layer_2" data-name="Layer 2"><g id="Layer_1-2" data-name="Layer 1-2"><path d="M19.05,7.58a1,1,0,0,0-1-.6h-10a1,1,0,0,0-1.13.85,1.31,1.31,0,0,0,0,.28v10a1,1,0,0,0,.85,1.13,1.31,1.31,0,0,0,.28,0h10a1,1,0,0,0,1.1-.89.74.74,0,0,0,0-.21v-10A1.09,1.09,0,0,0,19.05,7.58Zm-3.16,8.36a4,4,0,0,1-2.84,1.17h0a4.05,4.05,0,0,1-2.82-1.18,4,4,0,0,1,2.82-6.82h0a3.92,3.92,0,0,1,2.77,1.14,4,4,0,0,1,.09,5.69Zm1.28-5.83h0a1.17,1.17,0,0,1-.82-.34,1.17,1.17,0,0,1,.83-2h0a1.17,1.17,0,1,1,0,2.34Z"/><path d="M13.05,10.78h0a2.32,2.32,0,0,0-2.31,2.33,2.39,2.39,0,0,0,.72,1.67,2.31,2.31,0,0,0,3.92-1.67,2.37,2.37,0,0,0-.72-1.66A2.24,2.24,0,0,0,13.05,10.78Z"/><path d="M13.05.11a13,13,0,1,0,13,13A13,13,0,0,0,13.05.11Zm7.84,18A2.74,2.74,0,0,1,18.24,21H8.05a2.72,2.72,0,0,1-2.68-1.84,3.23,3.23,0,0,1-.16-.92V8.11A2.75,2.75,0,0,1,7.85,5.27h10.2a2.75,2.75,0,0,1,2.84,2.66.54.54,0,0,1,0,.18Z"/></g></g></svg>